<mxfile host="app.diagrams.net" modified="2022-05-29T09:36:34.892Z" agent="5.0 (Windows NT 10.0; Win64; x64) AppleWebKit/537.36 (KHTML, like Gecko) Chrome/101.0.4951.67 Safari/537.36" etag="jR_m1XB1PvLDLOsl1o65" version="18.1.1" type="github">
  <diagram id="c6qbjSEyD8QxU34hRSF-" name="Page-1">
    <mxGraphModel dx="951" dy="564" grid="1" gridSize="10" guides="1" tooltips="1" connect="1" arrows="1" fold="1" page="1" pageScale="1" pageWidth="850" pageHeight="1100" math="0" shadow="0">
      <root>
        <mxCell id="0" />
        <mxCell id="1" parent="0" />
        <mxCell id="4tpvIOvUN1W0ulr5QL8r-1" style="edgeStyle=orthogonalEdgeStyle;rounded=0;orthogonalLoop=1;jettySize=auto;html=1;entryX=0.5;entryY=0;entryDx=0;entryDy=0;" edge="1" parent="1" source="4tpvIOvUN1W0ulr5QL8r-2" target="4tpvIOvUN1W0ulr5QL8r-4">
          <mxGeometry relative="1" as="geometry" />
        </mxCell>
        <mxCell id="4tpvIOvUN1W0ulr5QL8r-2" value="Capture from camera&amp;nbsp;" style="rounded=0;whiteSpace=wrap;html=1;fontSize=12;glass=0;strokeWidth=1;shadow=0;" vertex="1" parent="1">
          <mxGeometry x="160" y="70" width="120" height="40" as="geometry" />
        </mxCell>
        <mxCell id="4tpvIOvUN1W0ulr5QL8r-3" style="edgeStyle=orthogonalEdgeStyle;rounded=0;orthogonalLoop=1;jettySize=auto;html=1;entryX=0.5;entryY=0;entryDx=0;entryDy=0;" edge="1" parent="1" source="4tpvIOvUN1W0ulr5QL8r-4" target="4tpvIOvUN1W0ulr5QL8r-6">
          <mxGeometry relative="1" as="geometry" />
        </mxCell>
        <mxCell id="4tpvIOvUN1W0ulr5QL8r-4" value="Divide capture into non-overlapped blocks" style="rounded=0;whiteSpace=wrap;html=1;" vertex="1" parent="1">
          <mxGeometry x="160" y="140" width="120" height="60" as="geometry" />
        </mxCell>
        <mxCell id="4tpvIOvUN1W0ulr5QL8r-5" style="edgeStyle=orthogonalEdgeStyle;rounded=0;orthogonalLoop=1;jettySize=auto;html=1;entryX=0.5;entryY=0;entryDx=0;entryDy=0;" edge="1" parent="1" source="4tpvIOvUN1W0ulr5QL8r-6" target="4tpvIOvUN1W0ulr5QL8r-9">
          <mxGeometry relative="1" as="geometry">
            <mxPoint x="220" y="310" as="targetPoint" />
          </mxGeometry>
        </mxCell>
        <mxCell id="4tpvIOvUN1W0ulr5QL8r-6" value="Concatenate block LBP histograms into a single vector" style="rounded=0;whiteSpace=wrap;html=1;" vertex="1" parent="1">
          <mxGeometry x="160" y="220" width="120" height="60" as="geometry" />
        </mxCell>
        <mxCell id="4tpvIOvUN1W0ulr5QL8r-7" value="no" style="edgeStyle=orthogonalEdgeStyle;rounded=0;orthogonalLoop=1;jettySize=auto;html=1;entryX=0.5;entryY=0;entryDx=0;entryDy=0;endArrow=classic;endFill=1;labelPosition=right;verticalLabelPosition=middle;align=left;verticalAlign=middle;fontSize=12;" edge="1" parent="1" source="4tpvIOvUN1W0ulr5QL8r-9" target="4tpvIOvUN1W0ulr5QL8r-10">
          <mxGeometry relative="1" as="geometry" />
        </mxCell>
        <mxCell id="4tpvIOvUN1W0ulr5QL8r-8" value="yes" style="edgeStyle=orthogonalEdgeStyle;rounded=0;orthogonalLoop=1;jettySize=auto;html=1;fontSize=12;endArrow=classic;endFill=1;labelPosition=right;verticalLabelPosition=middle;align=left;verticalAlign=middle;" edge="1" parent="1" source="4tpvIOvUN1W0ulr5QL8r-9">
          <mxGeometry relative="1" as="geometry">
            <mxPoint x="220" y="120" as="targetPoint" />
            <Array as="points">
              <mxPoint x="330" y="340" />
              <mxPoint x="330" y="120" />
              <mxPoint x="220" y="120" />
            </Array>
          </mxGeometry>
        </mxCell>
        <mxCell id="4tpvIOvUN1W0ulr5QL8r-9" value="&lt;span style=&quot;&quot;&gt;&amp;nbsp; &amp;nbsp;Detect more faces in camera?&lt;/span&gt;" style="rhombus;whiteSpace=wrap;html=1;rounded=0;glass=0;sketch=0;" vertex="1" parent="1">
          <mxGeometry x="135" y="300" width="170" height="80" as="geometry" />
        </mxCell>
        <mxCell id="4tpvIOvUN1W0ulr5QL8r-10" value="Represent recognition" style="rounded=0;whiteSpace=wrap;html=1;" vertex="1" parent="1">
          <mxGeometry x="160" y="410" width="120" height="60" as="geometry" />
        </mxCell>
      </root>
    </mxGraphModel>
  </diagram>
</mxfile>
